<svg xmlns="http://www.w3.org/2000/svg" version="1.1" xmlns:xlink="http://www.w3.org/1999/xlink" xmlns:svgjs="http://svgjs.com/svgjs" width="512" height="512" x="0" y="0" viewBox="0 0 512.001 512.001" style="enable-background:new 0 0 512 512" xml:space="preserve" class=""><g><path d="M512 200.093H0V97.104a8.829 8.829 0 0 1 8.828-8.828h494.345a8.829 8.829 0 0 1 8.828 8.828L512 200.093z" style="" fill="#fab446" data-original="#fab446" class=""></path><path d="M503.172 423.725H8.828A8.829 8.829 0 0 1 0 414.897V311.909h512v102.988a8.828 8.828 0 0 1-8.828 8.828z" style="" fill="#73af00" data-original="#73af00" class=""></path><path d="M0 200.091h512v111.81H0z" style="" fill="#f5f5f5" data-original="#f5f5f5" class=""></path><path d="M256 303.449c-26.164 0-47.448-21.284-47.448-47.448s21.284-47.448 47.448-47.448 47.448 21.284 47.448 47.448-21.284 47.448-47.448 47.448zm0-86.069c-21.298 0-38.621 17.323-38.621 38.621 0 21.298 17.323 38.621 38.621 38.621s38.621-17.323 38.621-38.621c0-21.298-17.323-38.621-38.621-38.621z" style="" fill="#41479b" data-original="#41479b" class=""></path><circle cx="256" cy="256.001" r="5.379" style="" fill="#41479b" data-original="#41479b" class=""></circle><path d="m256 256.808-13.67 1.38-29.364-1.38v-1.614l29.364-1.38 13.67 1.38zM256 256.808l13.67 1.38 29.364-1.38v-1.614l-29.364-1.38-13.67 1.38z" style="" fill="#41479b" data-original="#41479b" class=""></path><path d="m255.193 256.001-1.38-13.67 1.38-29.364h1.614l1.38 29.364-1.38 13.67zM255.193 256.001l-1.38 13.67 1.38 29.364h1.614l1.38-29.364-1.38-13.67z" style="" fill="#41479b" data-original="#41479b" class=""></path><path d="m255.43 256.571-10.642-8.689L225 226.142l1.141-1.141 21.74 19.788 8.689 10.642z" style="" fill="#41479b" data-original="#41479b" class=""></path><path d="m255.43 256.571 8.689 10.642 21.74 19.788L287 285.86l-19.788-21.74-10.642-8.689z" style="" fill="#41479b" data-original="#41479b" class=""></path><path d="m255.43 255.431 8.689-10.642 21.74-19.788 1.141 1.141-19.788 21.74-10.642 8.689zM255.43 255.431l-10.642 8.689L225 285.86l1.141 1.141 21.74-19.788 8.689-10.642z" style="" fill="#41479b" data-original="#41479b" class=""></path><path d="m256.309 256.747-12.102 6.506-27.656 9.962-.618-1.491 26.601-12.512 13.157-3.957z" style="" fill="#41479b" data-original="#41479b" class=""></path><path d="m256.309 256.747 13.157-3.957 26.601-12.512-.618-1.491-27.656 9.962-12.102 6.506z" style="" fill="#41479b" data-original="#41479b" class=""></path><path d="m255.254 256.31-6.506-12.102-9.962-27.656 1.491-.618 12.512 26.601 3.957 13.157z" style="" fill="#41479b" data-original="#41479b" class=""></path><path d="m255.254 256.31 3.957 13.157 12.512 26.601 1.491-.618-9.962-27.656-6.506-12.102z" style="" fill="#41479b" data-original="#41479b" class=""></path><path d="m255.691 256.747-13.157-3.957-26.601-12.512.618-1.491 27.656 9.962 12.102 6.506zM255.691 256.747l12.102 6.506 27.656 9.962.618-1.491-26.601-12.512-13.157-3.957z" style="" fill="#41479b" data-original="#41479b" class=""></path><path d="m255.254 255.692 3.957-13.157 12.512-26.601 1.491.618-9.962 27.656-6.506 12.102z" style="" fill="#41479b" data-original="#41479b" class=""></path><path d="m255.254 255.692-6.506 12.102-9.962 27.656 1.491.618 12.512-26.601 3.957-13.157z" style="" fill="#41479b" data-original="#41479b" class=""></path><circle cx="256" cy="256.001" r="7.256" style="" fill="#f5f5f5" data-original="#f5f5f5" class=""></circle><circle cx="256" cy="256.001" r="4.351" style="" fill="#41479b" data-original="#41479b" class=""></circle></g></svg>