<svg xmlns="http://www.w3.org/2000/svg" version="1.1" xmlns:xlink="http://www.w3.org/1999/xlink" xmlns:svgjs="http://svgjs.com/svgjs" width="512" height="512" x="0" y="0" viewBox="0 0 128 128" style="enable-background:new 0 0 512 512" xml:space="preserve" class=""><g><path d="M62.594 112.389a1.755 1.755 0 0 0 1.383.708H64a1.749 1.749 0 0 0 1.377-.671c1.448-1.847 35.45-45.549 35.45-73.227a36.827 36.827 0 0 0-73.654 0c0 10.6 5.981 26.165 17.779 46.26 8.716 14.846 17.554 26.811 17.642 26.93ZM64 5.872A33.364 33.364 0 0 1 97.327 39.2c0 23.369-26.776 60.519-33.291 69.21C57.6 99.383 30.673 60.388 30.673 39.2A33.364 33.364 0 0 1 64 5.872Z" fill="#e4e4e4" data-original="#000000" opacity="1" class=""></path><path d="M85.17 39.2A21.17 21.17 0 1 0 64 60.369 21.193 21.193 0 0 0 85.17 39.2ZM64 56.869A17.67 17.67 0 1 1 81.67 39.2 17.69 17.69 0 0 1 64 56.869ZM81.844 101.166a1.751 1.751 0 0 0-.426 3.475c15.067 1.849 19.942 5.337 19.942 6.736 0 2.627-13.186 7.74-37.36 7.74s-37.36-5.117-37.36-7.74c0-1.5 4.781-4.569 17.613-6.425a1.751 1.751 0 0 0-.5-3.465c-9.4 1.361-20.612 4.18-20.612 9.89 0 8.247 24.435 11.24 40.86 11.24s40.86-2.993 40.86-11.24c-.001-6.426-14.421-9.155-23.017-10.211Z" fill="#e4e4e4" data-original="#000000" opacity="1" class=""></path></g></svg>